<svg version="1.1" viewBox="0.0 0.0 1509.259842519685 1070.3700787401574" fill="none" stroke="none" stroke-linecap="square" stroke-miterlimit="10" xmlns:xlink="http://www.w3.org/1999/xlink" xmlns="http://www.w3.org/2000/svg"><clipPath id="p.0"><path d="m0 0l1509.2599 0l0 1070.3701l-1509.2599 0l0 -1070.3701z" clip-rule="nonzero"/></clipPath><g clip-path="url(#p.0)"><path fill="#000000" fill-opacity="0.0" d="m0 0l1509.2599 0l0 1070.3701l-1509.2599 0z" fill-rule="evenodd"/><path fill="#20124d" d="m0 0.002624672l1509.2599 0l0 1070.3622l-1509.2599 0z" fill-rule="evenodd"/><path fill="#ff0080" d="m-6.2575817 1080.4717l98.4302 -304.89288l-24.008354 -266.48358l-152.04614 -98.43021l5.599243 -24.008362l158.45108 60.020905l81.62738 -273.68915l-139.24641 -211.26135l48.01671 14.400957l141.64322 187.25806l-14.406021 62.42273l91.22972 14.40097l110.43436 -127.23718l-7.20047 -146.4469l40.811157 16.807873l21.606506 151.24554l-120.03671 127.23717l-43.213013 72.025085l-105.63573 -52.81534l-69.61815 220.86874l60.015823 290.4869l-120.03671 297.69244z" fill-rule="evenodd"/><path fill="#ff0080" d="m1515.5175 1085.6416l-98.430176 -304.89288l24.0083 -266.48358l152.04614 -98.43021l-5.599243 -24.008362l-158.45105 60.020905l-81.62744 -273.68915l139.24646 -211.26135l-48.016724 14.400959l-141.64319 187.25807l14.406006 62.42273l-91.22974 14.400955l-110.434326 -127.237175l7.2004395 -146.4469l-40.811157 16.807875l-21.606445 151.24553l120.03662 127.23718l43.213013 72.025055l105.63574 -52.81534l69.618164 220.86874l-60.015747 290.48688l120.03662 297.6925z" fill-rule="evenodd"/></g></svg>